HIERARCHY
ROOT Root
{
  OFFSET 0.0 0.0 0.0
  CHANNELS 6 Xposition Yposition Zposition Zrotation Yrotation Xrotation
  JOINT Hips
  {
    OFFSET 0.0 100.0 0.0
    CHANNELS 6 Xposition Yposition Zposition Zrotation Yrotation Xrotation
    JOINT Spine1
    {
      OFFSET 5.003913 -0.037094 -0.013727
      CHANNELS 3 Zrotation Yrotation Xrotation
      JOINT Spine2
      {
        OFFSET 7.125363 -1e-06 0.0
        CHANNELS 3 Zrotation Yrotation Xrotation
        JOINT Chest
        {
          OFFSET 7.594027 1e-06 0.0
          CHANNELS 3 Zrotation Yrotation Xrotation
          JOINT Neck1
          {
            OFFSET 26.313086 -0.460272 -0.181672
            CHANNELS 3 Zrotation Yrotation Xrotation
            JOINT Neck2
            {
              OFFSET 8.045911 0.0 0.0
              CHANNELS 3 Zrotation Yrotation Xrotation
              JOINT Head
              {
                OFFSET 6.432774 0.0 0.0
                CHANNELS 3 Zrotation Yrotation Xrotation
                JOINT HeadEnd
                {
                  OFFSET 16.169773 0.06451 0.00362
                  CHANNELS 3 Zrotation Yrotation Xrotation
                }
                JOINT Jaw
                {
                  OFFSET 0.108741 3.12938 0.002639
                  CHANNELS 3 Zrotation Yrotation Xrotation
                }
                JOINT LeftEye
                {
                  OFFSET 4.45173 8.166359 3.206392
                  CHANNELS 3 Zrotation Yrotation Xrotation
                }
                JOINT RightEye
                {
                  OFFSET 4.436895 8.135758 -3.222429
                  CHANNELS 3 Zrotation Yrotation Xrotation
                }
              }
            }
          }
          JOINT LeftShoulder
          {
            OFFSET 23.218927 5.195579 1.621656
            CHANNELS 3 Zrotation Yrotation Xrotation
            JOINT LeftArm
            {
              OFFSET 15.902118 2e-06 -2e-06
              CHANNELS 3 Zrotation Yrotation Xrotation
              JOINT LeftForeArm
              {
                OFFSET 28.739307 0.0 -1e-06
                CHANNELS 3 Zrotation Yrotation Xrotation
                JOINT LeftHand
                {
                  OFFSET 27.093981 -4e-06 0.0
                  CHANNELS 3 Zrotation Yrotation Xrotation
                  JOINT LeftHandThumb1
                  {
                    OFFSET 2.276781 3.380274 0.83384
                    CHANNELS 3 Zrotation Yrotation Xrotation
                    JOINT LeftHandThumb2
                    {
                      OFFSET 4.705309 -1e-06 -1e-06
                      CHANNELS 3 Zrotation Yrotation Xrotation
                      JOINT LeftHandThumb3
                      {
                        OFFSET 2.798515 0.0 3e-06
                        CHANNELS 3 Zrotation Yrotation Xrotation
                        JOINT LeftHandThumbEnd
                        {
                          OFFSET 3.180793 4e-06 -4e-06
                          CHANNELS 3 Zrotation Yrotation Xrotation
                        }
                      }
                    }
                  }
                  JOINT LeftHandIndex1
                  {
                    OFFSET 3.247786 2.352677 0.137192
                    CHANNELS 3 Zrotation Yrotation Xrotation
                    JOINT LeftHandIndex2
                    {
                      OFFSET 6.367095 1e-06 0.0
                      CHANNELS 3 Zrotation Yrotation Xrotation
                      JOINT LeftHandIndex3
                      {
                        OFFSET 3.662364 0.0 0.0
                        CHANNELS 3 Zrotation Yrotation Xrotation
                        JOINT LeftHandIndex4
                        {
                          OFFSET 2.329242 4e-06 -4e-06
                          CHANNELS 3 Zrotation Yrotation Xrotation
                          JOINT LeftHandIndexEnd
                          {
                            OFFSET 2.767823 1e-06 0.0
                            CHANNELS 3 Zrotation Yrotation Xrotation
                          }
                        }
                      }
                    }
                  }
                  JOINT LeftHandMiddle1
                  {
                    OFFSET 3.163612 0.945023 -0.406112
                    CHANNELS 3 Zrotation Yrotation Xrotation
                    JOINT LeftHandMiddle2
                    {
                      OFFSET 6.276789 3e-06 0.0
                      CHANNELS 3 Zrotation Yrotation Xrotation
                      JOINT LeftHandMiddle3
                      {
                        OFFSET 4.35652 -1e-06 4e-06
                        CHANNELS 3 Zrotation Yrotation Xrotation
                        JOINT LeftHandMiddle4
                        {
                          OFFSET 2.996877 0.0 8e-06
                          CHANNELS 3 Zrotation Yrotation Xrotation
                          JOINT LeftHandMiddleEnd
                          {
                            OFFSET 2.323256 3e-06 -4e-06
                            CHANNELS 3 Zrotation Yrotation Xrotation
                          }
                        }
                      }
                    }
                  }
                  JOINT LeftHandRing1
                  {
                    OFFSET 2.882606 -0.309162 0.107445
                    CHANNELS 3 Zrotation Yrotation Xrotation
                    JOINT LeftHandRing2
                    {
                      OFFSET 6.033198 0.0 4e-06
                      CHANNELS 3 Zrotation Yrotation Xrotation
                      JOINT LeftHandRing3
                      {
                        OFFSET 4.350578 3e-06 0.0
                        CHANNELS 3 Zrotation Yrotation Xrotation
                        JOINT LeftHandRing4
                        {
                          OFFSET 2.651321 2e-06 -7e-06
                          CHANNELS 3 Zrotation Yrotation Xrotation
                          JOINT LeftHandRingEnd
                          {
                            OFFSET 1.937663 1e-06 -4e-06
                            CHANNELS 3 Zrotation Yrotation Xrotation
                          }
                        }
                      }
                    }
                  }
                  JOINT LeftHandPinky1
                  {
                    OFFSET 2.865315 -1.525436 0.575687
                    CHANNELS 3 Zrotation Yrotation Xrotation
                    JOINT LeftHandPinky2
                    {
                      OFFSET 5.54936 1e-06 -8e-06
                      CHANNELS 3 Zrotation Yrotation Xrotation
                      JOINT LeftHandPinky3
                      {
                        OFFSET 3.070974 0.0 -4e-06
                        CHANNELS 3 Zrotation Yrotation Xrotation
                        JOINT LeftHandPinky4
                        {
                          OFFSET 1.549672 1e-06 0.0
                          CHANNELS 3 Zrotation Yrotation Xrotation
                          JOINT LeftHandPinkyEnd
                          {
                            OFFSET 1.952123 0.0 0.0
                            CHANNELS 3 Zrotation Yrotation Xrotation
                          }
                        }
                      }
                    }
                  }
                }
              }
            }
          }
          JOINT RightShoulder
          {
            OFFSET 23.161716 5.296122 -1.380114
            CHANNELS 3 Zrotation Yrotation Xrotation
            JOINT RightArm
            {
              OFFSET -16.027195 -2e-06 1.1e-05
              CHANNELS 3 Zrotation Yrotation Xrotation
              JOINT RightForeArm
              {
                OFFSET -28.736639 4e-06 2e-06
                CHANNELS 3 Zrotation Yrotation Xrotation
                JOINT RightHand
                {
                  OFFSET -27.133619 6e-06 0.0
                  CHANNELS 3 Zrotation Yrotation Xrotation
                  JOINT RightHandThumb1
                  {
                    OFFSET -2.274328 -3.351035 -0.83067
                    CHANNELS 3 Zrotation Yrotation Xrotation
                    JOINT RightHandThumb2
                    {
                      OFFSET -4.703594 -3e-06 2e-06
                      CHANNELS 3 Zrotation Yrotation Xrotation
                      JOINT RightHandThumb3
                      {
                        OFFSET -2.794935 -4e-06 -3e-06
                        CHANNELS 3 Zrotation Yrotation Xrotation
                        JOINT RightHandThumbEnd
                        {
                          OFFSET -3.183852 4e-06 1e-06
                          CHANNELS 3 Zrotation Yrotation Xrotation
                        }
                      }
                    }
                  }
                  JOINT RightHandIndex1
                  {
                    OFFSET -3.253496 -2.33755 -0.127667
                    CHANNELS 3 Zrotation Yrotation Xrotation
                    JOINT RightHandIndex2
                    {
                      OFFSET -6.344434 0.0 0.0
                      CHANNELS 3 Zrotation Yrotation Xrotation
                      JOINT RightHandIndex3
                      {
                        OFFSET -3.654871 0.0 -8e-06
                        CHANNELS 3 Zrotation Yrotation Xrotation
                        JOINT RightHandIndex4
                        {
                          OFFSET -2.327586 -1e-06 0.0
                          CHANNELS 3 Zrotation Yrotation Xrotation
                          JOINT RightHandIndexEnd
                          {
                            OFFSET -2.770001 3e-06 8e-06
                            CHANNELS 3 Zrotation Yrotation Xrotation
                          }
                        }
                      }
                    }
                  }
                  JOINT RightHandMiddle1
                  {
                    OFFSET -3.168223 -0.944764 0.411762
                    CHANNELS 3 Zrotation Yrotation Xrotation
                    JOINT RightHandMiddle2
                    {
                      OFFSET -6.266691 -1e-06 -4e-06
                      CHANNELS 3 Zrotation Yrotation Xrotation
                      JOINT RightHandMiddle3
                      {
                        OFFSET -4.348901 0.0 0.0
                        CHANNELS 3 Zrotation Yrotation Xrotation
                        JOINT RightHandMiddle4
                        {
                          OFFSET -3.00024 2e-06 -4e-06
                          CHANNELS 3 Zrotation Yrotation Xrotation
                          JOINT RightHandMiddleEnd
                          {
                            OFFSET -2.321477 -4e-06 -4e-06
                            CHANNELS 3 Zrotation Yrotation Xrotation
                          }
                        }
                      }
                    }
                  }
                  JOINT RightHandRing1
                  {
                    OFFSET -2.885654 0.293261 -0.119232
                    CHANNELS 3 Zrotation Yrotation Xrotation
                    JOINT RightHandRing2
                    {
                      OFFSET -6.032835 -1e-06 -4e-06
                      CHANNELS 3 Zrotation Yrotation Xrotation
                      JOINT RightHandRing3
                      {
                        OFFSET -4.33881 0.0 -4e-06
                        CHANNELS 3 Zrotation Yrotation Xrotation
                        JOINT RightHandRing4
                        {
                          OFFSET -2.654903 -4e-06 -4e-06
                          CHANNELS 3 Zrotation Yrotation Xrotation
                          JOINT RightHandRingEnd
                          {
                            OFFSET -1.935122 0.0 4e-06
                            CHANNELS 3 Zrotation Yrotation Xrotation
                          }
                        }
                      }
                    }
                  }
                  JOINT RightHandPinky1
                  {
                    OFFSET -2.866241 1.503904 -0.60527
                    CHANNELS 3 Zrotation Yrotation Xrotation
                    JOINT RightHandPinky2
                    {
                      OFFSET -5.553177 -2e-06 0.0
                      CHANNELS 3 Zrotation Yrotation Xrotation
                      JOINT RightHandPinky3
                      {
                        OFFSET -3.062664 -1e-06 -4e-06
                        CHANNELS 3 Zrotation Yrotation Xrotation
                        JOINT RightHandPinky4
                        {
                          OFFSET -1.546529 2e-06 4e-06
                          CHANNELS 3 Zrotation Yrotation Xrotation
                          JOINT RightHandPinkyEnd
                          {
                            OFFSET -1.952341 0.0 -4e-06
                            CHANNELS 3 Zrotation Yrotation Xrotation
                          }
                        }
                      }
                    }
                  }
                }
              }
            }
          }
        }
      }
    }
    JOINT LeftLeg
    {
      OFFSET -8.443107 2.567604 10.043214
      CHANNELS 3 Zrotation Yrotation Xrotation
      JOINT LeftShin
      {
        OFFSET 43.229198 1e-06 -1e-06
        CHANNELS 3 Zrotation Yrotation Xrotation
        JOINT LeftFoot
        {
          OFFSET 42.298611 1e-06 1e-06
          CHANNELS 3 Zrotation Yrotation Xrotation
          JOINT LeftToeBase
          {
            OFFSET 14.165858 1e-06 0.0
            CHANNELS 3 Zrotation Yrotation Xrotation
            JOINT LeftToeEnd
            {
              OFFSET 6.7141 -0.234461 0.0
              CHANNELS 3 Zrotation Yrotation Xrotation
            }
          }
        }
      }
    }
    JOINT RightLeg
    {
      OFFSET -8.303923 2.592729 -10.047278
      CHANNELS 3 Zrotation Yrotation Xrotation
      JOINT RightShin
      {
        OFFSET -43.369682 0.0 1e-06
        CHANNELS 3 Zrotation Yrotation Xrotation
        JOINT RightFoot
        {
          OFFSET -42.260784 4e-06 2e-06
          CHANNELS 3 Zrotation Yrotation Xrotation
          JOINT RightToeBase
          {
            OFFSET -14.222245 -2e-06 -1e-06
            CHANNELS 3 Zrotation Yrotation Xrotation
            JOINT RightToeEnd
            {
              OFFSET -6.660062 0.232574 -2e-06
              CHANNELS 3 Zrotation Yrotation Xrotation
            }
          }
        }
      }
    }
  }
}
MOTION
Frames: 5
Frame Time: 0.03333333333333333
0.0 0.0 0.0 0.0 -0.0 0.0 -10.083103 50.358055 123.474678 93.214165 -59.161686 99.176201 11.866748 -1.717564 -0.566486 -4.671437 -1.103573 1.05842 25.347853 -4.079402 -2.332624 21.628922 5.104497 2.845262 -2.691254 -0.730939 -4.127663 -32.75428 -1.096713 -6.597997 6e-06 0.0 -0.0 -0.135857 -0.200133 0.044657 -0.00036 -0.210717 0.097525 0.035809 -0.196731 -0.013766 -20.61212 -67.99527 22.281015 98.159119 3.080791 -25.922443 10.241808 -0.998757 0.012464 66.321281 69.742378 68.438896 17.636642 -26.322741 52.411213 -19.466665 -14.395602 29.410395 -0.0 -8.774824 -2e-06 15.356572 -18.763836 6.242797 -0.609777 -1.795654 -3.889328 -4.807091 -11.046814 -2.937851 4e-06 -20.976023 0.0 -5.019972 -25.033566 -4.031881 6e-06 1e-06 -0.0 -10.634537 -5.686973 -3.565589 10.573277 -17.922956 -3.1139 2e-06 -13.821214 1e-06 -0.501778 -31.181511 -4.027017 -10.803888 -58.160789 6.995078 -13.982719 -7.150199 -2.875042 13.772734 -8.401497 -3.218242 0.347733 -34.211559 0.771656 -0.963029 -17.733374 2.62102 -0.0 -0.0 0.0 -17.346426 -20.095224 -4.201783 21.757566 -1.638377 3.866429 1e-06 -6.338825 1e-06 -1.69759 -22.591755 -6.194008 0.0 -7e-06 -3e-06 176.278946 -61.155609 4.310606 50.809612 0.502256 -64.5065 23.779972 -3.077627 -0.437252 27.407192 46.488796 27.461441 22.182117 -20.375891 49.933319 -16.701811 -16.743526 28.476526 -1e-06 -12.690601 -2e-06 15.158929 -17.185074 2.732524 -0.10592 -1.513856 -4.275882 -5.039041 -5.612871 -2.953556 4e-06 -11.020526 -2e-06 -6.111298 -15.895334 -3.840471 -0.0 -2e-06 -1e-06 -10.28337 -5.680288 -4.341839 11.028294 -11.302406 -2.372632 -1.384269 -14.238579 -6.320121 -0.625438 -26.924191 -3.827603 -3.763294 -49.040054 -3.954246 -13.708524 -7.363476 -3.72094 18.141148 -14.052738 -3.242674 6e-06 -18.787268 -3e-06 -0.429712 -8.456039 2.555504 -0.0 -1e-06 -0.0 -15.923536 -20.094482 -5.473587 30.41921 -7.190827 1.735927 2e-06 -8.162924 0.0 -1.861902 -22.861471 -6.167943 -2e-06 -4e-06 -1e-06 93.404495 2.047988 4.113055 131.89801 0.166471 0.292925 -91.38372 8.482835 -3.763206 -17.595579 1.553562 1.695959 -0.999999 -0.0 0.0 -53.783825 -6.638623 -1.399555 103.105774 1.127888 -0.289629 -62.26712 -1.065549 -9.565971 -12.41133 0.617619 1.877524 -1.000003 0.0 0.0 
0.0 0.0 0.0 0.0 -0.0 0.0 -9.866267 50.34045 124.820641 94.074928 -58.578953 96.674202 11.821194 -2.028104 -0.438822 -4.647621 -1.17228 1.39188 25.711748 -4.477028 -1.880336 22.013901 4.184048 2.762288 -2.721638 -0.633345 -4.119349 -33.125977 -1.244058 -6.440012 6e-06 0.0 -0.0 -0.135818 -0.21822 0.046023 -0.001665 -0.250138 0.105421 0.027959 -0.193767 -0.020101 -22.449581 -68.811043 24.523003 98.453232 2.168418 -26.277378 10.309608 -1.111234 -0.011518 69.107292 69.538605 71.501816 17.636631 -26.322739 52.411213 -19.466665 -14.3956 29.410395 -1e-06 -8.774822 -2e-06 15.083966 -18.710968 6.372257 -0.609776 -1.795653 -3.889329 -4.807089 -11.046811 -2.937852 5e-06 -20.976019 1e-06 -5.01997 -25.033562 -4.03188 6e-06 1e-06 -0.0 -10.634536 -5.686971 -3.565589 10.573277 -17.922953 -3.113902 3e-06 -13.821211 1e-06 -0.501776 -31.181505 -4.027016 -10.840334 -58.176491 7.080265 -13.982715 -7.150198 -2.875044 13.772731 -8.401493 -3.218242 0.347735 -34.211555 0.771655 -0.963029 -17.733372 2.621021 -0.0 -0.0 0.0 -17.346422 -20.095221 -4.201784 21.757561 -1.638375 3.866428 1e-06 -6.338826 0.0 -1.697589 -22.591745 -6.194007 -0.0 -7e-06 -2e-06 177.903793 -60.886875 2.852182 51.45253 1.541217 -63.839218 22.127506 -2.657007 -0.353801 26.125139 46.623711 25.839411 22.182117 -20.375887 49.933308 -16.701811 -16.743528 28.476522 -2e-06 -12.690601 -2e-06 15.151163 -17.25997 2.808977 -0.105919 -1.513855 -4.27588 -5.039041 -5.61287 -2.953555 4e-06 -11.020523 -2e-06 -6.111297 -15.895332 -3.840471 0.0 -2e-06 -0.0 -10.283371 -5.680288 -4.341838 11.028295 -11.302404 -2.372633 -1.384269 -14.238574 -6.320121 -0.625436 -26.924187 -3.8276 -3.879713 -49.251984 -3.860818 -13.708524 -7.363476 -3.720938 18.141148 -14.052736 -3.242674 8e-06 -18.787262 -3e-06 -0.429711 -8.456041 2.555503 -1e-06 1e-06 -0.0 -15.923534 -20.094482 -5.473585 30.41921 -7.190823 1.735927 3e-06 -8.162922 -0.0 -1.861899 -22.861465 -6.167943 -1e-06 -3e-06 -1e-06 90.361366 2.081408 3.364754 134.32164 0.530169 0.387344 -92.397797 9.767527 -3.863697 -18.376841 1.49335 1.645646 -0.999998 -0.0 0.0 -51.762512 -6.000184 -0.928047 101.239983 0.780908 -0.335417 -61.898624 -0.541686 -9.953122 -12.406582 0.641019 1.862498 -1.000002 0.0 -0.0 
0.0 0.0 0.0 0.0 -0.0 0.0 -9.614238 50.28841 126.215195 94.668541 -57.868019 93.824867 11.720054 -2.335271 -0.227188 -4.64598 -1.245595 1.750023 26.07542 -4.914097 -1.341354 22.430887 3.143605 2.597027 -2.754787 -0.503857 -3.957105 -33.521229 -1.351318 -6.208747 6e-06 -0.0 0.0 -0.136766 -0.237112 0.047686 -0.002938 -0.290917 0.111819 0.023058 -0.190066 -0.024275 -24.603157 -69.618134 27.189901 98.451057 1.086332 -26.653545 10.349886 -1.199528 -0.02514 71.984467 69.372879 74.473518 17.636625 -26.322741 52.411213 -19.46666 -14.3956 29.410395 -1e-06 -8.774822 -1e-06 14.906203 -18.69228 6.485595 -0.609776 -1.795654 -3.889329 -4.807088 -11.046812 -2.937852 4e-06 -20.976017 -0.0 -5.01997 -25.03356 -4.031881 6e-06 1e-06 1e-06 -10.634535 -5.686972 -3.565588 10.573276 -17.922953 -3.113901 3e-06 -13.821208 1e-06 -0.501777 -31.181505 -4.027016 -10.933228 -58.263973 7.183033 -13.982715 -7.150198 -2.875043 13.772731 -8.401493 -3.218242 0.347733 -34.211555 0.771656 -0.96303 -17.73337 2.621021 -0.0 -0.0 -0.0 -17.34642 -20.095221 -4.201783 21.757559 -1.638375 3.866427 1e-06 -6.338824 1e-06 -1.697588 -22.591745 -6.194007 0.0 -4e-06 -2e-06 179.354767 -60.608307 1.549342 52.791759 2.399889 -63.26363 20.883511 -2.225315 -0.279928 25.345203 47.123997 24.700512 22.182121 -20.375904 49.933338 -16.701822 -16.743532 28.47654 -2e-06 -12.690606 -1e-06 15.168112 -17.353083 2.901744 -0.105919 -1.513856 -4.275883 -5.039042 -5.612873 -2.953558 4e-06 -11.020527 -1e-06 -6.111298 -15.895334 -3.840472 -0.0 -0.0 -0.0 -10.283374 -5.68029 -4.34184 11.028298 -11.302409 -2.372634 -1.384269 -14.238585 -6.320123 -0.625438 -26.924202 -3.827603 -4.013275 -49.496864 -3.765744 -13.708529 -7.363479 -3.72094 18.141157 -14.052745 -3.242677 7e-06 -18.787271 -2e-06 -0.429711 -8.456043 2.555504 0.0 0.0 0.0 -15.923539 -20.094492 -5.473587 30.419218 -7.190827 1.735925 3e-06 -8.162927 0.0 -1.861901 -22.861479 -6.167945 -0.0 -3e-06 -1e-06 88.286491 1.667753 3.141297 136.073715 0.833973 0.44332 -92.576805 10.898908 -4.05508 -19.197264 1.446962 1.61178 -1.0 0.0 -0.0 -49.636475 -4.995265 -0.261797 99.32196 0.383864 -0.35629 -61.843445 -0.031327 -10.337548 -12.485989 0.660942 1.848255 -1.000003 0.0 -0.0 
0.0 0.0 0.0 0.0 -0.0 0.0 -9.344946 50.14106 127.626541 94.864113 -57.032516 90.859863 11.58048 -2.601598 0.062078 -4.651281 -1.314113 2.148133 26.405184 -5.353787 -0.725131 22.878519 2.07759 2.392268 -2.7867 -0.379425 -3.686356 -33.845764 -1.385842 -5.932428 6e-06 0.0 -0.0 -0.134496 -0.256952 0.05023 -0.001289 -0.327614 0.116721 0.02002 -0.190997 -0.025329 -27.065628 -70.386604 30.257639 98.222809 -0.158296 -27.216339 10.400624 -1.260974 -0.023823 74.693596 69.106789 76.979347 17.636631 -26.322721 52.411182 -19.466656 -14.395594 29.410378 1e-06 -8.774821 -3e-06 14.833572 -18.694178 6.549002 -0.609776 -1.795654 -3.889326 -4.807088 -11.046809 -2.937849 5e-06 -20.976011 -0.0 -5.019969 -25.033546 -4.03188 6e-06 0.0 1e-06 -10.634533 -5.686969 -3.565585 10.573272 -17.922949 -3.113901 3e-06 -13.821204 -0.0 -0.501777 -31.181494 -4.027016 -11.060872 -58.418385 7.323251 -13.982712 -7.150196 -2.875041 13.772727 -8.40149 -3.218241 0.347735 -34.21154 0.771653 -0.963028 -17.733368 2.621019 -0.0 1e-06 0.0 -17.346415 -20.095213 -4.20178 21.757555 -1.638376 3.866427 1e-06 -6.338821 1e-06 -1.697589 -22.591738 -6.194005 -0.0 -7e-06 -2e-06 -179.324615 -60.340057 0.371403 54.651402 3.099916 -63.00433 20.030832 -1.852219 -0.249996 25.104864 47.986801 24.012165 22.182119 -20.375883 49.933296 -16.701811 -16.743525 28.476519 -1e-06 -12.6906 -2e-06 15.211923 -17.416864 2.99389 -0.10592 -1.513857 -4.275881 -5.03904 -5.612869 -2.953555 4e-06 -11.02052 -2e-06 -6.111296 -15.89533 -3.840469 0.0 2e-06 0.0 -10.283369 -5.680288 -4.341838 11.028293 -11.302404 -2.372632 -1.384268 -14.238579 -6.32012 -0.625438 -26.924187 -3.8276 -4.111459 -49.687832 -3.718965 -13.708525 -7.363475 -3.720938 18.141148 -14.052739 -3.242673 8e-06 -18.787268 -3e-06 -0.429712 -8.456043 2.555503 -0.0 -1e-06 0.0 -15.923534 -20.094482 -5.473584 30.419207 -7.190828 1.735929 5e-06 -8.162921 -1e-06 -1.8619 -22.861467 -6.167942 -2e-06 -3e-06 -0.0 87.355858 0.798408 3.455199 137.097488 1.054469 0.486697 -91.543213 11.612827 -4.263858 -20.362644 1.417375 1.553715 -0.999998 -0.0 -0.0 -47.384655 -3.664624 0.595678 97.406387 -0.009842 -0.364141 -61.954475 0.459389 -10.661173 -12.574197 0.669164 1.83762 -1.000002 0.0 -0.0 
0.0 0.0 0.0 0.0 -0.0 0.0 -9.075942 49.885643 129.050262 94.577507 -56.106506 88.008781 11.410203 -2.807256 0.391494 -4.677628 -1.340635 2.58015 26.704063 -5.772913 -0.023266 23.351431 1.022997 2.1454 -2.816786 -0.242549 -3.305763 -34.116737 -1.357023 -5.605755 7e-06 -0.0 0.0 -0.131987 -0.268141 0.052813 0.006835 -0.356884 0.124398 0.029072 -0.181994 -0.030105 -29.663328 -71.044846 33.524487 97.850136 -1.580354 -27.833931 10.464089 -1.278044 -0.012055 77.264633 68.865669 79.22699 17.636629 -26.322733 52.411201 -19.466663 -14.395598 29.410395 -0.0 -8.774822 -2e-06 14.850853 -18.717096 6.571627 -0.609776 -1.795653 -3.889327 -4.80709 -11.046814 -2.937852 5e-06 -20.976015 1e-06 -5.01997 -25.03356 -4.031881 6e-06 0.0 2e-06 -10.634535 -5.686971 -3.565589 10.573275 -17.922951 -3.1139 3e-06 -13.821209 1e-06 -0.501777 -31.181505 -4.027017 -11.17574 -58.576515 7.418677 -13.982715 -7.150199 -2.875042 13.772731 -8.401492 -3.218242 0.347733 -34.211555 0.771656 -0.963029 -17.73337 2.62102 -0.0 -0.0 0.0 -17.346422 -20.095217 -4.201783 21.757559 -1.638374 3.866428 1e-06 -6.338825 1e-06 -1.69759 -22.591747 -6.194006 -0.0 -6e-06 -3e-06 -178.165665 -60.132885 -0.67973 56.926365 3.635962 -62.835384 19.463638 -1.533078 -0.269761 25.164749 49.069019 23.291119 22.182108 -20.375895 49.933323 -16.701813 -16.743532 28.476532 -3e-06 -12.690601 0.0 15.279182 -17.433611 3.055573 -0.105919 -1.513856 -4.275882 -5.03904 -5.612869 -2.953556 4e-06 -11.020523 -2e-06 -6.111297 -15.89533 -3.84047 0.0 -0.0 0.0 -10.283369 -5.680287 -4.341839 11.028294 -11.302404 -2.372633 -1.384267 -14.238577 -6.320121 -0.625437 -26.924187 -3.827601 -4.159424 -49.767178 -3.717236 -13.708525 -7.363474 -3.720939 18.14115 -14.052738 -3.242676 6e-06 -18.787266 -1e-06 -0.429713 -8.456045 2.555504 -0.0 -1e-06 0.0 -15.923534 -20.094479 -5.473585 30.41921 -7.190825 1.735925 5e-06 -8.162921 -1e-06 -1.861903 -22.861465 -6.167939 -2e-06 -4e-06 -1e-06 87.793121 -0.461051 4.342668 137.408173 1.188471 0.543284 -89.128296 11.699118 -4.360613 -22.286041 1.411882 1.472582 -0.999998 0.0 -0.0 -44.96629 -2.093358 1.577183 95.516617 -0.381009 -0.369047 -62.393982 0.823988 -10.952666 -12.645321 0.673173 1.825647 -1.000002 -0.0 -0.0 
